<?xml version="1.0" encoding="UTF-8"?>
<svg width="278px" height="100px" viewBox="0 0 278 100" version="1.1" xmlns="http://www.w3.org/2000/svg" xmlns:xlink="http://www.w3.org/1999/xlink">
    <title>Artboard</title>
    <g id="Artboard" stroke="none" stroke-width="1" fill="none" fill-rule="evenodd">
        <g id="gatsby" transform="translate(178.000000, 0.000000)" fill-rule="nonzero">
            <g id="Group">
                <g transform="translate(10.714286, 10.714286)" fill="#FFFFFF" id="Path">
                    <path d="M78.5714286,39.2857143 L53.5714286,39.2857143 L53.5714286,46.4285714 L70.7142857,46.4285714 C68.2142857,57.1428571 60.3571429,66.0714286 50,69.6428571 L8.92857143,28.5714286 C13.2142857,16.0714286 25.3571429,7.14285714 39.2857143,7.14285714 C50,7.14285714 59.6428571,12.5 65.7142857,20.7142857 L71.0714286,16.0714286 C63.9285714,6.42857143 52.5,0 39.2857143,0 C20.7142857,0 5,13.2142857 1.07142857,30.7142857 L48.2142857,77.8571429 C65.3571429,73.5714286 78.5714286,57.8571429 78.5714286,39.2857143 Z"></path>
                    <path d="M0,39.6428571 C0,49.6428571 3.92857143,59.2857143 11.4285714,66.7857143 C18.9285714,74.2857143 28.9285714,78.2142857 38.5714286,78.2142857 L0,39.6428571 Z"></path>
                </g>
                <path d="M50,0 C22.5,0 0,22.5 0,50 C0,77.5 22.5,100 50,100 C77.5,100 100,77.5 100,50 C100,22.5 77.5,0 50,0 Z M22.1428571,77.8571429 C14.6428571,70.3571429 10.7142857,60.3571429 10.7142857,50.7142857 L49.6428571,89.2857143 C39.6428571,88.9285714 29.6428571,85.3571429 22.1428571,77.8571429 Z M58.5714286,88.2142857 L11.7857143,41.4285714 C15.7142857,23.9285714 31.4285714,10.7142857 50,10.7142857 C63.2142857,10.7142857 74.6428571,17.1428571 81.7857143,26.7857143 L76.4285714,31.4285714 C70.3571429,23.2142857 60.7142857,17.8571429 50,17.8571429 C36.0714286,17.8571429 24.2857143,26.7857143 19.6428571,39.2857143 L60.7142857,80.3571429 C71.0714286,76.7857143 78.9285714,67.8571429 81.4285714,57.1428571 L64.2857143,57.1428571 L64.2857143,50 L89.2857143,50 C89.2857143,68.5714286 76.0714286,84.2857143 58.5714286,88.2142857 Z" id="Shape" fill="#663399"></path>
            </g>
        </g>
        <g id="icon--craft-cms" fill="#E5422B" fill-rule="nonzero">
            <path d="M89.5985963,0 L10.4998355,0 C4.69992637,0 0,4.7 0,10.5 L0,89.4 C0,95.3 4.69992637,100 10.4998355,100 L89.4985978,100 C95.1985085,100 99.9984333,95.3 99.9984333,89.5 L99.9984333,10.5 C100.098432,4.7 95.3985054,0 89.5985963,0 Z M49.7992198,60.9 C53.0991681,60.9 56.5991133,59.6 59.99906,56.6 L64.6989864,62 C59.7990631,66 54.1991509,68.2 48.5992386,68.2 C37.4994125,68.2 30.4995222,60.8 32.0994971,50.4 C33.699472,40 43.1993232,32.6 54.3991477,32.6 C59.7990631,32.6 64.7989848,34.7 68.29893,38.6 L61.6990334,44 C59.7990631,41.5 56.6991117,39.9 53.1991665,39.9 C46.4992715,39.9 41.3993514,44.2 40.2993686,50.4 C39.2993843,56.6 42.9993263,60.9 49.7992198,60.9 Z" id="Shape"></path>
        </g>
        <g id="Group-2" transform="translate(127.000000, 38.000000)" stroke="#C8E1FF" stroke-linecap="round" stroke-width="4">
            <line x1="0" y1="12" x2="24" y2="12" id="Line"></line>
            <line x1="12" y1="0" x2="12" y2="24" id="Line"></line>
        </g>
    </g>
</svg>